<?xml version="1.0" encoding="UTF-8" standalone="no"?>
<svg
   width="118"
   height="18"
   viewBox="0 0 118 18"
   fill="none"
   version="1.1"
   id="svg37"
   sodipodi:docname="logo.svg"
   inkscape:version="1.1.2 (b8e25be833, 2022-02-05)"
   xmlns:inkscape="http://www.inkscape.org/namespaces/inkscape"
   xmlns:sodipodi="http://sodipodi.sourceforge.net/DTD/sodipodi-0.dtd"
   xmlns="http://www.w3.org/2000/svg"
   xmlns:svg="http://www.w3.org/2000/svg">
  <defs
     id="defs41" />
  <sodipodi:namedview
     id="namedview39"
     pagecolor="#ffffff"
     bordercolor="#666666"
     borderopacity="1.0"
     inkscape:pageshadow="2"
     inkscape:pageopacity="0.0"
     inkscape:pagecheckerboard="0"
     showgrid="false"
     inkscape:zoom="10.610169"
     inkscape:cx="58.952875"
     inkscape:cy="13.430511"
     inkscape:window-width="1920"
     inkscape:window-height="1001"
     inkscape:window-x="-9"
     inkscape:window-y="-9"
     inkscape:window-maximized="1"
     inkscape:current-layer="svg37" />
  <path
     id="path33"
     d="M 7.578125,0.1171875 C 6.458795,0.1095205 5.4395313,0.29020313 4.5195312,0.65820312 3.6072013,1.0185341 2.8783144,1.5586269 2.3339844,2.2792969 c -0.53667,0.72067 -0.8046875,1.6140175 -0.8046875,2.6796875 0,0.72833 0.1197518,1.3415137 0.3574219,1.8398437 0.24533,0.49067 0.5559706,0.8946544 0.9316406,1.2089844 0.38333,0.31433 0.7853612,0.5620938 1.2070312,0.7460937 0.42933,0.184 0.8273125,0.3301701 1.1953125,0.4375 l 4.2773438,1.2656248 c 1.2267001,0.368 1.8417971,1.003503 1.8417971,1.908203 0,0.506 -0.166394,0.938528 -0.496094,1.298828 -0.322,0.352701 -0.742372,0.622641 -1.2636719,0.806641 -0.52133,0.184 -1.0776387,0.275391 -1.6679687,0.275391 -0.99667,0 -1.8778613,-0.267988 -2.6445313,-0.804688 -0.759,-0.5367 -1.2624825,-1.296043 -1.5078125,-2.277344 l -2.87499998,0.4375 c 0.17632998,1.081 0.57626568,2.014988 1.19726558,2.804688 0.6286701,0.782 1.4246251,1.384941 2.390625,1.806641 0.9736701,0.4217 2.0639082,0.632812 3.2675782,0.632812 1.13467,0 2.1965468,-0.192872 3.1855466,-0.576172 0.989,-0.3833 1.784925,-0.957909 2.390625,-1.724609 0.6133,-0.7667 0.919922,-1.720981 0.919922,-2.863281 0,-0.8203 -0.152284,-1.498457 -0.458984,-2.035157 -0.298525,-0.5434647 -0.685891,-0.9791067 -1.160156,-1.3085934 -0.36916,0.00728 -0.73827,0.013133 -1.107422,0.021484 C 10.834303,8.874657 10.157875,8.890542 9.4824219,8.90625 8.5496551,8.9279423 8.5281702,7.9865357 9.4609375,7.9648438 9.9008331,7.954613 10.341063,7.9437582 10.78125,7.9335938 10.431197,7.8125972 10.098729,7.7061761 9.7988281,7.6269531 l -2.96875,-0.828125 c -0.368,-0.09967 -0.7355156,-0.2215175 -1.1035156,-0.3671875 -0.368,-0.15333 -0.6745919,-0.356375 -0.9199219,-0.609375 -0.24533,-0.26067 -0.3671875,-0.59367 -0.3671875,-1 0,-0.42933 0.1421113,-0.8049531 0.4257813,-1.1269531 0.29133,-0.322 0.6710019,-0.5717169 1.1386718,-0.7480469 0.47533,-0.17633 0.9890157,-0.2575175 1.5410157,-0.2421875 0.851,0.023 1.6164981,0.2727169 2.2988281,0.7480469 0.6823,0.47533 1.112763,1.1494375 1.289062,2.0234375 L 14.111328,4.9589844 C 13.743328,3.4256544 12.988003,2.24192 11.845703,1.40625 10.703403,0.562916 9.280125,0.1325215 7.578125,0.1171875 Z m 10.021484,1.0136719 v 3.4492187 h -2.253906 v 2.1738281 h 2.253906 v 1.0195313 c 0.920047,-0.029226 1.839929,-0.06011 2.759766,-0.09375 V 6.7539062 h 3.646484 V 4.5800781 H 20.359375 V 1.1308594 Z M 31.679688,4.234375 c -1.456701,0 -2.618076,0.3187481 -3.484376,0.9550781 -0.783384,0.5754257 -1.33633,1.3223578 -1.662109,2.2363281 0.433591,-0.019359 0.867201,-0.03675 1.300781,-0.056641 -0.01352,0.034101 -0.01787,0.056641 -0.0293,0.087891 0.173426,0.020705 0.446894,0.1560342 0.736328,0.3125 0.422782,-0.2540954 0.897712,-0.5760001 1.154296,-0.5957031 0.08876,-0.00682 0.150601,0.022392 0.175782,0.1035157 8.16e-4,0.00263 0.0012,0.00518 0.002,0.00781 0.06116,-0.039183 0.117361,-0.084068 0.183594,-0.1171874 0.5213,-0.2606701 1.063346,-0.390625 1.623047,-0.390625 0.843299,0 1.462628,0.1725781 1.861328,0.5175781 0.3987,0.33733 0.625987,0.8612187 0.679687,1.5742187 -1.0887,0.161 -2.101809,0.3193263 -3.037109,0.4726563 -0.9277,0.14567 -1.717441,0.3243925 -2.369141,0.5390625 -0.9813,0.3372996 -1.698091,0.8164996 -2.150391,1.4374996 -0.4523,0.6133 -0.677734,1.372644 -0.677734,2.277344 0,0.6823 0.156403,1.3077 0.470703,1.875 0.322,0.5673 0.795016,1.024141 1.416016,1.369141 0.621,0.3373 1.378391,0.505859 2.275391,0.505859 0.989,0 1.829531,-0.162375 2.519531,-0.484375 0.6977,-0.3297 1.310843,-0.839297 1.839843,-1.529297 V 17 h 2.425782 V 9.375 c 0,-0.53667 -0.02236,-1.0300919 -0.06836,-1.4824219 -0.046,-0.46 -0.180043,-0.9087031 -0.402343,-1.3457031 -0.4063,-0.82033 -1.0317,-1.4111544 -1.875,-1.7714844 -0.8357,-0.36033 -1.804204,-0.5410156 -2.908203,-0.5410156 z m -3.138672,3.5351562 c -0.357217,0.2146904 -0.676338,0.3792376 -0.794922,0.2714844 0.01477,0.032381 0.0366,0.071702 0.05273,0.1054688 l 1.166016,0.3671875 C 29.014329,8.3615512 29.075126,8.2204957 29.142578,8.0898438 28.949007,7.9897384 28.744695,7.8796393 28.541016,7.7695312 Z m -0.794922,0.2714844 c -0.01348,-0.029549 -0.0337,-0.066805 -0.04492,-0.09375 0.0068,0.042494 0.02213,0.073042 0.04492,0.09375 z m -0.04492,-0.09375 c -0.01522,-0.0955 0.01878,-0.2585852 0.103516,-0.4902344 -0.195695,-0.023363 -0.267351,0.097019 -0.103516,0.4902344 z m 18.36914,-3.421875 c -0.287499,0.00575 -0.57985,0.036179 -0.875,0.089844 -0.5904,0.09967 -1.116171,0.3067637 -1.576171,0.6210937 -0.2607,0.161 -0.494172,0.3559375 -0.701172,0.5859375 -0.207,0.22233 -0.387716,0.4720469 -0.541016,0.7480469 V 4.5800781 H 39.927734 V 17 h 2.783204 v -6.314453 c 0,-0.7206701 0.129925,-1.360252 0.390624,-1.919922 0.2683,-0.55967 3.818407,-1.5978281 1.253907,-1.2988281 0.3833,-0.22233 0.813662,-0.352295 1.289062,-0.390625 0.4753,-0.046 0.899691,-0.015533 1.275391,0.091797 V 4.5800781 c -0.27985,-0.042165 -0.56211,-0.060437 -0.84961,-0.054687 z M 20.359375,8.6230469 c -0.919877,0.033714 -1.839734,0.066486 -2.759766,0.095703 v 3.208984 c 0,0.713 0.0081,1.350457 0.02344,1.910157 0.0153,0.552 0.165519,1.096112 0.449219,1.632812 0.322,0.5903 0.793062,1.022828 1.414062,1.298828 0.621,0.2683 1.321516,0.410481 2.103516,0.425781 0.7897,0.023 1.595715,-0.04201 2.416015,-0.195312 v -2.322266 c -0.7743,0.115 -1.464612,0.145497 -2.070312,0.0918 -0.6057,-0.0537 -1.046266,-0.311484 -1.322266,-0.771484 -0.1457,-0.2377 -0.226887,-0.544222 -0.242187,-0.919922 -0.0077,-0.3833 -0.01172,-0.819847 -0.01172,-1.310547 z m 13.826172,2.5234371 c -0.0077,0.2913 -0.02594,0.616263 -0.05664,0.976563 -0.0307,0.3527 -0.10375,0.671378 -0.21875,0.955078 -0.092,0.2837 -0.272715,0.586203 -0.541015,0.908203 -0.2607,0.322 -0.613894,0.594106 -1.058594,0.816406 -0.4447,0.2223 -0.980675,0.333985 -1.609375,0.333985 -0.6517,0 -1.149141,-0.148266 -1.494141,-0.447266 -0.3373,-0.299 -0.505859,-0.676606 -0.505859,-1.128906 0,-0.4063 0.129925,-0.735281 0.390625,-0.988281 0.2683,-0.253 0.639934,-0.468232 1.115234,-0.644532 0.437,-0.1457 0.962872,-0.271606 1.576172,-0.378906 0.6133,-0.115 1.413344,-0.249044 2.402344,-0.402344 z" />
  <path
     id="path35"
     d="M 99.658203,0.15234375 V 2.6933594 h 2.771487 V 0.15234375 Z M 53.185547,0.43945312 47.964844,17 h 2.851562 l 1.222656,-3.587891 h 6.4375 L 59.615234,17 h 2.851563 L 60.65625,11.257812 c -0.095,0.01269 -0.185716,0.02215 -0.28125,0.03516 -2.963891,0.403548 -3.571715,0.435465 -5.990234,1.013672 -0.714596,0.170842 -1.43686,0.325153 -2.136719,0.548828 -0.22092,0.07061 -0.407121,0.220121 -0.611328,0.330078 -0.821497,0.442345 -1.268763,-0.387733 -0.447266,-0.830078 0.204206,-0.109957 0.392699,-0.258428 0.613281,-0.330078 0.838291,-0.272308 3.320554,-0.893398 4.292969,-1.058594 0.295345,-0.05017 0.59072,-0.09655 0.886719,-0.142578 H 52.759766 L 55.1875,3.1191406 c 3.89093,10.5435784 1.74329,5.387425 2.433594,7.6093754 0.87209,-0.128761 1.745679,-0.247899 2.61914,-0.367188 0.04345,-0.0059 0.08553,-0.0098 0.128907,-0.01563 L 57.246094,0.43945312 Z m 19.537109,0 V 5.1894531 c -0.414,-0.30667 -0.878878,-0.5401719 -1.392578,-0.7011719 -0.5136,-0.16867 -1.080172,-0.2539062 -1.701172,-0.2539062 -1.173,0 -2.192194,0.2842325 -3.058594,0.8515625 -0.858599,0.56733 -1.526553,1.3449844 -2.001953,2.3339844 -0.3623,0.7538719 -0.583773,1.5882643 -0.669921,2.4980469 0.98843,-0.1087616 2.000571,-0.2142266 3.001953,-0.3164063 0.05675,-0.2988218 0.130523,-0.5876464 0.232421,-0.859375 0.237701,-0.621 0.595013,-1.1103731 1.070313,-1.4707031 0.483,-0.368 1.096244,-0.5527344 1.839844,-0.5527344 1.058,0 1.823528,0.3756231 2.298828,1.1269531 0.216899,0.3373979 0.37855,0.7280387 0.498047,1.1582031 0.875021,-0.079048 1.753118,-0.1440074 2.675781,-0.1855468 V 0.43945312 Z M 112.38281,4.2226562 c -0.897,0 -1.68714,0.1583263 -2.36914,0.4726563 -0.675,0.30667 -1.2384,0.728955 -1.6914,1.265625 V 4.5800781 h -2.47071 V 17 h 2.80469 v -6.382812 c 0,-1.0043305 0.14278,-1.7779361 0.42578,-2.3222661 0.292,-0.552 0.65952,-0.9316719 1.10352,-1.1386719 0.453,-0.21467 0.91386,-0.3222656 1.38086,-0.3222656 0.66,0 1.18517,0.14617 1.57617,0.4375 0.391,0.28367 0.67733,0.6471269 0.86133,1.0917968 0.192,0.437 0.31418,0.8938107 0.36718,1.3691407 0.062,0.4753001 0.0937,0.9038091 0.0937,1.2871091 V 17 h 2.80469 v -6.933594 c 0,-0.2913298 -0.0271,-0.6791091 -0.0801,-1.1621091 -0.046,-0.483 -0.15426,-0.9926269 -0.32226,-1.5292969 -0.169,-0.53667 -0.42925,-1.0422481 -0.78125,-1.5175781 -0.353,-0.483 -0.8315,-0.8748282 -1.4375,-1.1738281 -0.598,-0.30667 -1.35363,-0.4609375 -2.26563,-0.4609376 z m -27.615232,0.046875 c -0.7437,0 -1.429994,0.1502188 -2.058594,0.4492188 -0.621,0.29133 -1.134715,0.6933613 -1.541015,1.2070312 V 4.5800781 H 78.71875 V 17 h 2.792969 V 9.3515625 c 0,-0.77433 0.211112,-1.4017656 0.632812,-1.8847656 0.4293,-0.483 0.997725,-0.7246094 1.703125,-0.7246094 0.7283,0 1.30291,0.2416094 1.72461,0.7246094 0.4216,0.483 0.632812,1.1571075 0.632812,2.0234375 V 17 h 2.759766 V 9.3515625 c 0,-0.82033 0.221315,-1.4599219 0.666015,-1.9199219 0.4523,-0.46 1.012688,-0.6894531 1.679688,-0.6894531 0.713,0 1.279472,0.2416094 1.701172,0.7246094 0.4293,0.47533 0.644531,1.1372812 0.644531,1.9882812 V 17 h 2.771484 V 8.7539062 c 0,-1.34933 -0.367515,-2.4335762 -1.103515,-3.2539062 -0.7284,-0.82033 -1.778091,-1.2304687 -3.150391,-1.2304688 -0.805,0 -1.541984,0.1766269 -2.208984,0.5292969 -0.667,0.35267 -1.192872,0.8358888 -1.576172,1.4492188 -0.3297,-0.60567 -0.796744,-1.08483 -1.402344,-1.4375 -0.6057,-0.36033 -1.34475,-0.5410156 -2.21875,-0.5410157 z M 99.658203,4.5800781 V 17 h 2.771487 V 4.5800781 Z M 75.515625,9.7597656 c -0.878548,0.040995 -1.689068,0.1018002 -2.494141,0.1738282 0.02951,0.2713182 0.04492,0.5560452 0.04492,0.8554682 0,1.2037 -0.241609,2.186313 -0.724609,2.945313 -0.4753,0.7513 -1.271225,1.126953 -2.390625,1.126953 -0.7206,0 -1.315503,-0.180716 -1.783203,-0.541016 -0.4676,-0.368 -0.816875,-0.859356 -1.046875,-1.472656 -0.2223,-0.6133 -0.333985,-1.299594 -0.333985,-2.058594 0,-0.07888 0.0072,-0.153105 0.0098,-0.230468 -0.978562,0.09979 -1.97488,0.206038 -2.9375,0.3125 0.01033,1.20837 0.240224,2.298957 0.697266,3.265625 0.4677,0.989 1.127515,1.770703 1.978515,2.345703 0.851,0.575 1.847935,0.863281 2.990235,0.863281 0.736,0 1.397981,-0.111684 1.988281,-0.333984 0.5904,-0.2223 1.108134,-0.532941 1.552734,-0.931641 V 17 h 2.449219 z" />
  <text
     xml:space="preserve"
     style="font-style:normal;font-weight:normal;font-size:40px;line-height:1.25;font-family:sans-serif;fill:#000000;fill-opacity:1;stroke:none"
     x="2.827476"
     y="13.383387"
     id="text6728"><tspan
       sodipodi:role="line"
       id="tspan6726"
       x="2.827476"
       y="13.383387" /></text>
  <text
     xml:space="preserve"
     style="font-style:normal;font-weight:normal;font-size:40px;line-height:1.25;font-family:sans-serif;fill:#000000;fill-opacity:1;stroke:none"
     x="0.2827476"
     y="17.907349"
     id="text8238"><tspan
       sodipodi:role="line"
       id="tspan8236"
       x="0.2827476"
       y="17.907349" /></text>
  <text
     xml:space="preserve"
     style="font-size:21.3333px;line-height:1.25;font-family:sans-serif;fill:#000000"
     x="0.75399363"
     y="17.530352"
     id="text12351"><tspan
       sodipodi:role="line"
       id="tspan12349"
       x="0.75399363"
       y="17.530352"
       style="font-style:normal;font-variant:normal;font-weight:bold;font-stretch:normal;font-size:21.3333px;font-family:'Malgun Gothic';-inkscape-font-specification:'Malgun Gothic Bold'">A.I Lab.<tspan
   style="fill:#0055d4"
   id="tspan37573">Co</tspan></tspan></text>
  <text
     xml:space="preserve"
     style="font-size:32px;line-height:1.25;font-family:sans-serif;fill:#000000"
     x="24.005861"
     y="17"
     id="text22129"><tspan
       sodipodi:role="line"
       id="tspan22127"
       x="24.005861"
       y="17" /></text>
  <text
     xml:space="preserve"
     style="font-size:32px;line-height:1.25;font-family:sans-serif"
     x="24.005861"
     y="17"
     id="text26203"><tspan
       sodipodi:role="line"
       id="tspan26201"
       x="24.005861"
       y="17" /></text>
</svg>
